<svg width="30" height="42" viewBox="0 0 30 42" fill="none" xmlns="http://www.w3.org/2000/svg">
<path d="M1.66666 0H28.3333C29.2538 0 30 1.04466 30 2.33334V39.6667C30 40.9554 29.2538 42 28.3333 42H1.66666C0.746199 42 0 40.9554 0 39.6667V2.33334C0 1.04466 0.746199 0 1.66666 0Z" fill="#F0D57C"/>
<path d="M28.3333 0H1.66674C0.746276 0 7.9274e-05 0.447711 7.9274e-05 1L0 17C0 20.3137 6.71573 23 15 23C23.2843 23 30 20.3137 30 17V1C30 0.447711 29.2538 0 28.3333 0Z" fill="#FAE29C"/>
<circle cx="15" cy="23" r="6" fill="#F84D30"/>
<path d="M15.4444 21V21.8333H16.5556V22.6667H14.1111C13.9884 22.6667 13.8889 22.76 13.8889 22.875C13.8889 22.9773 13.9675 23.0623 14.0712 23.08L14.1111 23.0833H15.8889C16.5025 23.0833 17 23.5497 17 24.125C17 24.7003 16.5025 25.1667 15.8889 25.1667H15.4444V26H14.5556V25.1667H13.4444V24.3333H15.8889C16.0116 24.3333 16.1111 24.24 16.1111 24.125C16.1111 24.0227 16.0325 23.9377 15.9288 23.92L15.8889 23.9167H14.1111C13.4975 23.9167 13 23.4503 13 22.875C13 22.2997 13.4975 21.8333 14.1111 21.8333H14.5556V21H15.4444Z" fill="#FAE29C"/>
</svg>
