<svg width="24" height="24" viewBox="0 0 24 24" fill="none" xmlns="http://www.w3.org/2000/svg">
<path d="M12 21C7.02944 21 3 16.9706 3 12C3 7.02945 7.02944 3 12 3C16.9705 3 21 7.02945 21 12C21 16.9706 16.9705 21 12 21ZM8.84999 13.8V15.6H11.1V17.4H12.9V15.6H13.8C15.0426 15.6 16.05 14.5927 16.05 13.35C16.05 12.1073 15.0426 11.1 13.8 11.1H10.2C9.95147 11.1 9.74999 10.8986 9.74999 10.65C9.74999 10.4015 9.95147 10.2 10.2 10.2H15.15V8.40001H12.9V6.60001H11.1V8.40001H10.2C8.95736 8.40001 7.95 9.40737 7.95 10.65C7.95 11.8927 8.95736 12.9 10.2 12.9H13.8C14.0485 12.9 14.25 13.1015 14.25 13.35C14.25 13.5986 14.0485 13.8 13.8 13.8H8.84999Z" fill="white"/>
</svg>
