<svg width="24" height="24" viewBox="0 0 24 24" fill="none" xmlns="http://www.w3.org/2000/svg">
<path d="M4 1H20C20.5523 1 21 1.5472 21 2.22223V21.7778C21 22.4528 20.5523 23 20 23H4C3.44772 23 3 22.4528 3 21.7778V2.22223C3 1.5472 3.44772 1 4 1Z" fill="#C29F5C"/>
<path d="M12.8889 7V8.66667H15.1111V10.3333H10.2222C9.97676 10.3333 9.77777 10.5199 9.77777 10.75C9.77777 10.9546 9.935 11.1247 10.1423 11.1599L10.2222 11.1667H13.7778C15.0051 11.1667 16 12.0994 16 13.25C16 14.4006 15.0051 15.3333 13.7778 15.3333H12.8889V17H11.1111V15.3333H8.88889V13.6667H13.7778C14.0232 13.6667 14.2222 13.4801 14.2222 13.25C14.2222 13.0454 14.065 12.8753 13.8577 12.8401L13.7778 12.8333H10.2222C8.99492 12.8333 8 11.9006 8 10.75C8 9.59941 8.99492 8.66667 10.2222 8.66667H11.1111V7H12.8889Z" fill="white"/>
</svg>
