<svg width="18" height="22" viewBox="0 0 18 22" fill="none" xmlns="http://www.w3.org/2000/svg">
<path d="M0.999999 0H17C17.5523 0 18 0.547203 18 1.22223V20.7778C18 21.4528 17.5523 22 17 22H0.999999C0.44772 22 0 21.4528 0 20.7778V1.22223C0 0.547203 0.44772 0 0.999999 0Z" fill="#FF4B4B"/>
<path d="M0 9V10.0001C0 12.2093 1.79086 14.0001 4 14.0001H14C16.2091 14.0001 18 12.2093 18 10.0001V9C18 11.2091 16.2091 13 14 13H4C1.79086 13 0 11.2091 0 9Z" fill="#FFBDA1"/>
<circle cx="9" cy="13.5" r="2" fill="#FFBDA1"/>
</svg>
